<?xml version="1.0" encoding="utf-8"?>
<!-- Generator: Adobe Illustrator 24.2.3, SVG Export Plug-In . SVG Version: 6.00 Build 0)  -->
<svg version="1.1" id="Layer_1" xmlns="http://www.w3.org/2000/svg" xmlns:xlink="http://www.w3.org/1999/xlink" x="0px" y="0px"
	 viewBox="0 0 98.2 111.3" style="enable-background:new 0 0 98.2 111.3;" xml:space="preserve">
<style type="text/css">
	.st0{fill:#9ECBE0;}
</style>
<path class="st0" d="M95.8,0l-36,63.1l9.7,0l6.3-11h19.6v11H69.4l-1.1,2h27v46.2h2.8V0H95.8z M95.3,50.2H76.8l18.5-32.4L95.3,50.2z"
	/>
<path class="st0" d="M58.6,65l-9.5,16.6L32.6,52.8l-9.8,0l6.1,10.6h-26V52.8h19.9l-1.1-2H2.8V18.1l18.8,32.7h9.8L31,49.9L2.4,0H0
	v111.3h2.8V65.4H30l14.8,25.8l-0.1,20.1l8.7,0l0.1-20.2l14.9-26L58.6,65z"/>
</svg>
